<svg width="158" height="368" viewBox="0 0 158 368" fill="none" xmlns="http://www.w3.org/2000/svg">
<defs>
<linearGradient id="paint0_linear_27_904" x1="79" y1="387.87" x2="79" y2="333.114" gradientUnits="userSpaceOnUse">
<stop/>
<stop offset="1" stop-opacity="0"/>
</linearGradient>
<linearGradient id="paint1_linear_27_904" x1="11316.8" y1="6392.61" x2="11316.2" y2="6026.15" gradientUnits="userSpaceOnUse">
<stop/>
<stop offset="1" stop-opacity="0"/>
</linearGradient>
<linearGradient id="paint2_linear_27_904" x1="2192.69" y1="1233.9" x2="2199.98" y2="1294.97" gradientUnits="userSpaceOnUse">
<stop/>
<stop offset="1" stop-opacity="0"/>
</linearGradient>
<linearGradient id="paint3_linear_27_904" x1="1997.2" y1="1062.78" x2="2002.05" y2="1114.89" gradientUnits="userSpaceOnUse">
<stop/>
<stop offset="1" stop-opacity="0"/>
</linearGradient>
<linearGradient id="paint4_linear_27_904" x1="105.204" y1="264.979" x2="68.2875" y2="132.612" gradientUnits="userSpaceOnUse">
<stop stop-color="#3789D5"/>
<stop offset="0.697396" stop-color="#69A0D3" stop-opacity="0.592641"/>
<stop offset="1" stop-color="#A3BBD1" stop-opacity="0.13"/>
</linearGradient>
<linearGradient id="paint5_linear_27_904" x1="86.9381" y1="234.51" x2="78.5645" y2="229.375" gradientUnits="userSpaceOnUse">
<stop stop-color="#2264A1"/>
<stop offset="1" stop-color="#3789D5" stop-opacity="0"/>
</linearGradient>
<linearGradient id="paint6_linear_27_904" x1="15018.7" y1="17996" x2="12378.9" y2="15343.5" gradientUnits="userSpaceOnUse">
<stop/>
<stop offset="1" stop-opacity="0"/>
</linearGradient>
<linearGradient id="paint7_linear_27_904" x1="22.1841" y1="269.144" x2="71.9006" y2="277.609" gradientUnits="userSpaceOnUse">
<stop stop-color="#4FCEEE" stop-opacity="0.85"/>
<stop offset="1" stop-color="#EDA0EF" stop-opacity="0"/>
</linearGradient>
<linearGradient id="paint8_linear_27_904" x1="22.1841" y1="269.144" x2="71.9006" y2="277.609" gradientUnits="userSpaceOnUse">
<stop stop-color="#4FCEEE" stop-opacity="0.85"/>
<stop offset="1" stop-color="#EDA0EF" stop-opacity="0"/>
</linearGradient>
<linearGradient id="paint9_linear_27_904" x1="137.368" y1="321.632" x2="137.359" y2="321.634" gradientUnits="userSpaceOnUse">
<stop/>
<stop offset="1" stop-opacity="0"/>
</linearGradient>
<linearGradient id="paint10_linear_27_904" x1="204.068" y1="436.658" x2="203.936" y2="436.681" gradientUnits="userSpaceOnUse">
<stop/>
<stop offset="1" stop-opacity="0"/>
</linearGradient>
<linearGradient id="paint11_linear_27_904" x1="3018.86" y1="1779.17" x2="3073.57" y2="2028.63" gradientUnits="userSpaceOnUse">
<stop stop-opacity="0.52"/>
<stop offset="1" stop-opacity="0"/>
</linearGradient>
<linearGradient id="paint12_linear_27_904" x1="95.3577" y1="224.901" x2="81.1196" y2="216.93" gradientUnits="userSpaceOnUse">
<stop stop-color="#3789D5"/>
<stop offset="1" stop-color="#3789D5" stop-opacity="0"/>
</linearGradient>
<linearGradient id="paint13_linear_27_904" x1="3622.3" y1="9608.29" x2="3493.62" y2="9645.84" gradientUnits="userSpaceOnUse">
<stop stop-color="#7A73F7"/>
<stop offset="1" stop-color="#7A73F7" stop-opacity="0"/>
</linearGradient>
<linearGradient id="paint14_linear_27_904" x1="94.9543" y1="203.472" x2="91.9187" y2="205.748" gradientUnits="userSpaceOnUse">
<stop stop-color="#3789D5"/>
<stop offset="1" stop-color="#3789D5" stop-opacity="0.13"/>
</linearGradient>
<linearGradient id="paint15_linear_27_904" x1="5726.77" y1="533.403" x2="10698.9" y2="533.403" gradientUnits="userSpaceOnUse">
<stop/>
<stop offset="1" stop-opacity="0"/>
</linearGradient>
<linearGradient id="paint16_linear_27_904" x1="6589.99" y1="281.661" x2="16236" y2="281.661" gradientUnits="userSpaceOnUse">
<stop/>
<stop offset="1" stop-opacity="0"/>
</linearGradient>
<linearGradient id="paint17_linear_27_904" x1="4107.22" y1="595.644" x2="5952.11" y2="595.644" gradientUnits="userSpaceOnUse">
<stop/>
<stop offset="1" stop-opacity="0"/>
</linearGradient>
</defs>
<path d="M79 355.164C122.63 355.164 158 347.536 158 338.127C158 328.719 122.63 321.091 79 321.091C35.3695 321.091 0 328.719 0 338.127C0 347.536 35.3695 355.164 79 355.164Z" fill="#5382AE"/>
<path style="mix-blend-mode:overlay" d="M79 355.164C122.63 355.164 158 347.536 158 338.127C158 328.719 122.63 321.091 79 321.091C35.3695 321.091 0 328.719 0 338.127C0 347.536 35.3695 355.164 79 355.164Z" fill="url(#paint0_linear_27_904)"/>
<path style="mix-blend-mode:overlay" d="M1.66397 341.081C1.66397 331.681 37.0371 324.055 80.664 324.055C118.638 324.055 150.341 329.83 157.923 337.532C156.479 328.386 121.701 321.102 79 321.102C35.3731 321.102 0 328.717 0 338.127C0.040637 338.804 0.214384 339.465 0.511275 340.074C0.808165 340.683 1.22236 341.227 1.73009 341.676C1.69117 341.48 1.66905 341.281 1.66397 341.081Z" fill="url(#paint1_linear_27_904)"/>
<path d="M116.025 182.224C118.428 178.464 129.46 166.283 124.797 158.963C120.134 151.643 110.601 162.823 110.601 162.823L116.025 182.224Z" fill="#5E93C5"/>
<path d="M134.883 227.766L151.233 243.419C151.233 243.419 149.228 249.274 141.028 246.079C132.828 242.885 125.649 231.772 125.649 231.772L134.883 227.766Z" fill="#5E93C5"/>
<path style="mix-blend-mode:overlay" d="M143.75 236.226L137.696 230.426L131.478 233.682C133.898 234.771 140.668 236.904 143.75 236.226Z" fill="url(#paint2_linear_27_904)"/>
<path d="M130.223 205.965L150.434 228.173C150.434 228.173 147.371 235.39 139.179 232.182C130.987 228.973 120.989 209.971 120.989 209.971L130.223 205.965Z" fill="#5E93C5"/>
<path style="mix-blend-mode:overlay" d="M136.865 213.26L131.856 207.771L125.314 210.885C127.706 212.039 133.755 213.832 136.865 213.26Z" fill="url(#paint3_linear_27_904)"/>
<g style="mix-blend-mode:screen">
<path d="M142.89 219.878C142.647 221.097 142.69 222.356 143.016 223.556C143.342 224.755 143.942 225.862 144.77 226.79C147.589 229.724 150.428 228.152 150.428 228.152L142.89 219.878Z" fill="#C9C7A3"/>
</g>
<path d="M124.001 193.039L142.979 200.76C142.979 200.76 143.03 208.592 134.231 208.906C125.432 209.22 117.073 200.404 117.073 200.404L124.001 193.039Z" fill="#5E93C5"/>
<g style="mix-blend-mode:screen">
<path d="M132.874 196.69L142.988 200.792C142.132 201.738 140.981 202.365 139.723 202.573C138.464 202.78 137.172 202.555 136.058 201.934C131.76 199.86 132.874 196.69 132.874 196.69Z" fill="#C9C7A3"/>
</g>
<g style="mix-blend-mode:screen">
<path d="M144.77 237.205C144.483 238.118 144.464 239.094 144.715 240.018C144.966 240.941 145.477 241.773 146.187 242.415C146.858 243.017 147.682 243.422 148.569 243.584C149.455 243.746 150.37 243.659 151.21 243.333L144.77 237.205Z" fill="#C9C7A3"/>
</g>
<path d="M56.6284 261.172L50.3137 237.948C49.4614 234.947 49.6278 231.749 50.7868 228.853C51.9458 225.957 54.032 223.527 56.7191 221.943L56.9424 221.882C63.762 218.109 64.6763 253.684 64.6763 253.684L56.6284 261.172Z" fill="#5E93C5"/>
<path d="M34.4596 127.947L95.9216 111.234C98.0086 110.667 100.235 110.952 102.112 112.026C103.989 113.101 105.363 114.877 105.93 116.964L142.844 252.722C143.411 254.807 143.127 257.03 142.054 258.905C140.981 260.779 139.207 262.151 137.123 262.717L71.8328 280.471C70.7555 280.763 69.6059 280.616 68.637 280.062C67.6681 279.507 66.9592 278.59 66.6663 277.513L28.7197 137.958C28.4385 136.924 28.3639 135.844 28.5002 134.781C28.6366 133.718 28.9811 132.692 29.5142 131.762C30.0473 130.833 30.7585 130.017 31.6071 129.362C32.4556 128.707 33.4249 128.226 34.4596 127.947Z" fill="white"/>
<path d="M96.4921 114.083L79.2435 118.853C79.0641 118.909 78.9115 119.029 78.8144 119.19C78.7173 119.351 78.6823 119.542 78.7161 119.727C78.9171 121.044 78.6341 122.39 77.9194 123.514C77.2048 124.639 76.1069 125.466 74.829 125.843L59.1126 130.117C57.8197 130.439 56.454 130.281 55.2683 129.673C54.0827 129.066 53.1574 128.049 52.6638 126.811C52.5992 126.635 52.4724 126.488 52.3071 126.398C52.1418 126.308 51.9495 126.282 51.7663 126.324L35.3916 130.697C34.7028 130.892 34.0591 131.22 33.4974 131.664C32.9358 132.108 32.4672 132.658 32.1185 133.284C31.7698 133.909 31.5478 134.597 31.4653 135.308C31.3827 136.019 31.4412 136.739 31.6375 137.428L68.3205 272.336C68.4999 273.029 68.8142 273.68 69.2455 274.251C69.6767 274.822 70.2165 275.303 70.8337 275.666C71.451 276.028 72.1337 276.265 72.8428 276.364C73.5519 276.462 74.2734 276.42 74.966 276.239L136.067 259.625C136.757 259.431 137.402 259.103 137.965 258.66C138.528 258.216 138.998 257.666 139.348 257.04C139.697 256.414 139.92 255.726 140.003 255.014C140.086 254.302 140.028 253.581 139.831 252.891L103.143 117.962C102.961 117.27 102.644 116.622 102.211 116.053C101.779 115.483 101.238 115.005 100.621 114.645C100.003 114.285 99.3207 114.05 98.6123 113.953C97.9039 113.857 97.1835 113.901 96.4921 114.083Z" fill="#E4E9F5"/>
<path opacity="0.5" d="M96.4921 114.083L79.2435 118.853C79.0641 118.909 78.9115 119.029 78.8144 119.19C78.7173 119.351 78.6823 119.542 78.7161 119.727C78.9171 121.044 78.6341 122.39 77.9194 123.514C77.2048 124.639 76.1069 125.466 74.829 125.843L59.1126 130.117C57.8197 130.439 56.454 130.281 55.2683 129.673C54.0827 129.066 53.1574 128.049 52.6638 126.811C52.5992 126.635 52.4724 126.488 52.3071 126.398C52.1418 126.308 51.9495 126.282 51.7663 126.324L35.3916 130.697C34.7028 130.892 34.0591 131.22 33.4974 131.664C32.9358 132.108 32.4672 132.658 32.1185 133.284C31.7698 133.909 31.5478 134.597 31.4653 135.308C31.3827 136.019 31.4412 136.739 31.6375 137.428L68.3205 272.336C68.4999 273.029 68.8142 273.68 69.2455 274.251C69.6767 274.822 70.2165 275.303 70.8337 275.666C71.451 276.028 72.1337 276.265 72.8428 276.364C73.5519 276.462 74.2734 276.42 74.966 276.239L136.067 259.625C136.757 259.431 137.402 259.103 137.965 258.66C138.528 258.216 138.998 257.666 139.348 257.04C139.697 256.414 139.92 255.726 140.003 255.014C140.086 254.302 140.028 253.581 139.831 252.891L103.143 117.962C102.961 117.27 102.644 116.622 102.211 116.053C101.779 115.483 101.238 115.005 100.621 114.645C100.003 114.285 99.3207 114.05 98.6123 113.953C97.9039 113.857 97.1835 113.901 96.4921 114.083Z" fill="url(#paint4_linear_27_904)"/>
<path opacity="0.2" d="M95.4186 270.654C95.4186 270.654 83.8535 253.026 84.6908 236.115C85.0157 229.54 90.1213 224.84 94.1495 218.697C98.5933 211.185 95.9604 203.77 93.7189 201.49C92.7851 200.534 89.5776 198.859 86.0187 202.99C79.7523 215.349 67.2018 244.159 67.2018 244.159L87.8613 272.344L95.4186 270.654Z" fill="url(#paint5_linear_27_904)"/>
<path d="M93.1696 274.646C90.7047 261.087 83.7405 254.29 83.7405 254.29C82.1198 241.484 77.6263 234.198 77.6263 234.198C83.6363 231.102 90.8128 219.319 93.805 212.978C96.7973 206.637 90.6287 199.532 88.7208 200.873C86.8129 202.214 62.757 222.562 61.8996 224.029C59.4608 230.767 53.1702 253.41 59.0979 289.952C58.2494 292.375 55.8691 304.83 53.4302 318.204C50.8175 332.618 47.7277 348.674 46.853 353.731C49.8959 354.128 54.5453 354.396 59.8261 354.575C66.3479 354.796 73.8328 354.881 80.4434 354.903C90.2264 354.937 98.0949 354.833 98.0949 354.833C100.601 342.504 103.675 314.5 104.538 305.62C105.214 298.95 105.515 294.597 105.515 294.597C113.095 280.477 113.99 268.985 113.99 268.985L93.1696 274.646Z" fill="#5186B7"/>
<path d="M59.8261 354.575C80.5205 355.763 88.3211 355.298 98.0949 354.833C98.0949 354.833 90.2264 354.937 80.4434 354.903C73.8328 354.881 66.3479 354.796 59.8261 354.575Z" fill="#5186B7"/>
<path style="mix-blend-mode:overlay" d="M114.029 268.997L107.34 270.816C103.117 294.804 63.1819 336.382 46.8281 352.717L46.7369 353.221C56.7297 351.543 67.7157 349.15 79.1362 346.044C86.0799 344.156 92.7425 342.116 99.0321 340.006C101.538 327.677 103.665 314.502 104.529 305.623C105.204 298.953 105.505 294.6 105.505 294.6C112.935 280.806 113.981 269.536 114.029 268.997Z" fill="url(#paint6_linear_27_904)"/>
<g style="mix-blend-mode:overlay" opacity="0.3">
<path d="M114.029 268.997L107.34 270.816C103.117 294.804 63.1819 336.382 46.8281 352.717L46.7369 353.221C76.6073 356.486 91.0383 354.704 99.1976 353.221C101.703 340.892 103.665 314.502 104.529 305.623C105.204 298.953 105.505 294.6 105.505 294.6C112.935 280.806 113.981 269.536 114.029 268.997Z" fill="#B8C3D0" fill-opacity="0.73"/>
</g>
<path style="mix-blend-mode:overlay" d="M76.3211 279.25C70.959 253.86 56.8228 222.451 91.4851 201.926C91.3624 201.811 91.2533 201.704 91.1364 201.61L90.9896 201.49C90.8329 201.36 90.667 201.241 90.4931 201.134C90.4197 201.08 90.3418 201.032 90.2603 200.992L90.0333 200.871L89.7047 200.754L89.5782 200.709C89.445 200.684 89.3089 200.679 89.1742 200.693L89.0785 200.719C88.9486 200.726 88.8216 200.76 88.7063 200.82C86.7849 202.154 62.7425 222.509 61.8851 223.975C60.2433 228.647 56.7713 240.657 56.6333 259.469C56.6174 261.3 56.6372 263.179 56.6966 265.161C56.9442 273.469 57.7464 281.751 59.0978 289.952L58.9322 290.476L58.9524 290.551C58.8923 290.75 58.8303 290.984 58.7663 291.252L58.7343 291.387C58.6703 291.655 58.6015 291.948 58.5172 292.268L58.5432 292.364C58.4646 292.705 58.3812 293.07 58.3036 293.457C58.2183 293.857 58.1174 294.284 58.0253 294.743L57.9962 294.888L57.6964 296.305L57.6702 296.461C57.3365 298.048 56.9727 299.86 56.5962 301.835L56.6165 301.909C56.4855 302.561 56.3603 303.235 56.2303 303.933L56.2447 303.986C55.4287 308.25 54.5261 313.121 53.6129 318.12C51.0001 332.534 47.7931 348.08 46.9185 353.137C51.8869 352.3 57.0951 351.295 62.4812 350.105C63.4491 320.276 80.3716 298.43 76.3211 279.25Z" fill="url(#paint7_linear_27_904)"/>
<path style="mix-blend-mode:overlay" d="M76.3211 279.25C70.959 253.86 56.8228 222.451 91.4851 201.926C91.3624 201.811 91.2533 201.704 91.1364 201.61L90.9896 201.49C90.8329 201.36 90.667 201.241 90.4931 201.134C90.4197 201.08 90.3418 201.032 90.2603 200.992L90.0333 200.871L89.7047 200.754L89.5782 200.709C89.445 200.684 89.3089 200.679 89.1742 200.693L89.0785 200.719C88.9486 200.726 88.8216 200.76 88.7063 200.82C86.7849 202.154 62.7425 222.509 61.8851 223.975C60.2433 228.647 56.7713 240.657 56.6333 259.469C56.6174 261.3 56.6372 263.179 56.6966 265.161C56.9442 273.469 57.7464 281.751 59.0978 289.952L58.9322 290.476L58.9524 290.551C58.8923 290.75 58.8303 290.984 58.7663 291.252L58.7343 291.387C58.6703 291.655 58.6015 291.948 58.5172 292.268L58.5432 292.364C58.4646 292.705 58.3812 293.07 58.3036 293.457C58.2183 293.857 58.1174 294.284 58.0253 294.743L57.9962 294.888L57.6964 296.305L57.6702 296.461C57.3365 298.048 56.9727 299.86 56.5962 301.835L56.6165 301.909C56.4855 302.561 56.3603 303.235 56.2303 303.933L56.2447 303.986C55.4287 308.25 54.5261 313.121 53.6129 318.12C51.0001 332.534 47.7931 348.08 46.9185 353.137C51.8869 352.3 57.0951 351.295 62.4812 350.105C63.4491 320.276 80.3716 298.43 76.3211 279.25Z" fill="url(#paint8_linear_27_904)"/>
<g style="mix-blend-mode:screen">
<path d="M77.6081 210.062C77.6081 210.062 80.8244 212.819 85.9099 209.221C90.9954 205.623 88.7133 200.842 88.7133 200.842L77.6081 210.062Z" fill="#C9C7A3"/>
</g>
<path style="mix-blend-mode:overlay" d="M112.813 275.746L112.856 275.528L112.813 275.746Z" fill="url(#paint9_linear_27_904)"/>
<path style="mix-blend-mode:overlay" d="M112.487 277.022L112.687 276.248L112.487 277.022Z" fill="url(#paint10_linear_27_904)"/>
<path style="mix-blend-mode:overlay" d="M111.81 279.444C112.895 276.036 113.639 272.528 114.033 268.973L93.1699 274.646C97.0091 279.358 106.212 280.989 111.81 279.444Z" fill="url(#paint11_linear_27_904)"/>
<path d="M77.6271 234.198C83.6372 231.102 90.8136 219.319 93.8058 212.978C94.3853 211.648 94.6508 210.203 94.5816 208.755C94.5125 207.306 94.1107 205.893 93.4072 204.624C86.4909 209.931 77.9344 220.251 77.6271 234.198Z" fill="url(#paint12_linear_27_904)"/>
<path d="M77.6265 234.198C69.9478 255.769 93.1997 274.672 93.1997 274.672C90.7348 261.114 83.7706 254.317 83.7706 254.317C82.1199 241.484 77.6265 234.198 77.6265 234.198Z" fill="url(#paint13_linear_27_904)"/>
<path d="M94.3734 211.122C95.6497 205.316 90.4591 199.624 88.7079 200.786C88.7079 200.786 93.9771 206.011 91.8531 210.756C91.4812 211.657 92.961 212.899 94.3734 211.122Z" fill="url(#paint14_linear_27_904)"/>
<path d="M86.172 70.2056C86.5407 72.3566 86.2153 74.5691 85.243 76.5228C84.2708 78.4766 82.702 80.0703 80.7639 81.0733C78.8257 82.0764 76.6187 82.4367 74.4622 82.1021C72.3057 81.7675 70.3115 80.7554 68.7684 79.2123C67.2253 77.6692 66.2132 75.675 65.8786 73.5185C65.544 71.362 65.9043 69.155 66.9074 67.2168C67.9104 65.2787 69.5041 63.7099 71.4579 62.7377C73.4116 61.7654 75.6241 61.44 77.7751 61.8087C79.8707 62.1694 81.8031 63.1704 83.3067 64.674C84.8103 66.1776 85.8113 68.11 86.172 70.2056ZM53.9395 53.4668L58.8102 57.5881C59.1851 57.8956 59.6605 58.0534 60.1448 58.031C60.6291 58.0086 61.088 57.8077 61.4329 57.4669C69.1467 49.8193 82.8441 49.8193 90.5909 57.4669C90.9358 57.8077 91.3947 58.0086 91.879 58.031C92.3633 58.0534 92.8388 57.8956 93.2136 57.5881L98.1284 53.4888C98.3334 53.3152 98.5008 53.1015 98.6203 52.8609C98.7398 52.6203 98.8089 52.3578 98.8234 52.0895C98.8378 51.8212 98.7973 51.5528 98.7043 51.3008C98.6114 51.0487 98.4679 50.8183 98.2827 50.6237C95.403 47.6221 91.9461 45.2338 88.1199 43.6022C84.2936 41.9707 80.177 41.1297 76.0174 41.1297C71.8578 41.1297 67.7412 41.9707 63.915 43.6022C60.0887 45.2338 56.6319 47.6221 53.7522 50.6237C53.5724 50.8201 53.4343 51.0508 53.3461 51.302C53.2579 51.5531 53.2214 51.8196 53.2389 52.0852C53.2564 52.3509 53.3275 52.6102 53.4479 52.8476C53.5683 53.0851 53.7356 53.2957 53.9395 53.4668ZM39.4376 38.7886L44.1651 43.0642C44.524 43.4077 45.0016 43.5994 45.4984 43.5994C45.9953 43.5994 46.4729 43.4077 46.8318 43.0642C50.6566 39.2113 55.206 36.1534 60.2178 34.0666C65.2297 31.9799 70.605 30.9055 76.0339 30.9055C81.4629 30.9055 86.8382 31.9799 91.8501 34.0666C96.8619 36.1534 101.411 39.2113 105.236 43.0642C105.589 43.4127 106.062 43.6127 106.558 43.623C107.055 43.6332 107.536 43.453 107.903 43.1193L112.619 38.8326C112.815 38.6541 112.972 38.4378 113.081 38.1969C113.191 37.9559 113.251 37.6953 113.257 37.4307C113.263 37.1661 113.215 36.903 113.117 36.6572C113.019 36.4115 112.872 36.1881 112.685 36.0006C107.902 31.1314 102.196 27.2639 95.9011 24.6239C89.6064 21.9838 82.8489 20.6241 76.0229 20.6241C69.197 20.6241 62.4395 21.9838 56.1447 24.6239C49.85 27.2639 44.1443 31.1314 39.3605 36.0006C39.1812 36.188 39.0409 36.4092 38.9476 36.6512C38.8544 36.8933 38.81 37.1514 38.8172 37.4107C38.8244 37.67 38.8829 37.9253 38.9894 38.1618C39.0959 38.3983 39.2482 38.6113 39.4376 38.7886ZM24.9137 24.2536L29.564 28.6064C29.9387 28.9543 30.4351 29.1412 30.9462 29.1268C31.4574 29.1124 31.9424 28.8978 32.2969 28.5293C43.8927 16.9087 59.6285 10.3686 76.045 10.3468C84.174 10.3086 92.2287 11.8954 99.7357 15.0141C107.243 18.1327 114.051 22.7203 119.76 28.5072C120.114 28.8757 120.6 29.0903 121.111 29.1047C121.622 29.1192 122.118 28.9323 122.493 28.5844L127.154 24.1765C127.343 24.0002 127.495 23.7881 127.602 23.5525C127.708 23.3169 127.767 23.0625 127.774 22.8042C127.781 22.5458 127.737 22.2885 127.644 22.0474C127.55 21.8063 127.41 21.586 127.231 21.3995C120.537 14.624 112.565 9.24458 103.777 5.57307C94.9883 1.90157 85.5585 0.0110168 76.0339 0.0110168C66.5094 0.0110168 57.0796 1.90157 48.2912 5.57307C39.5028 9.24458 31.5305 14.624 24.8366 21.3995C24.644 21.5865 24.4924 21.8113 24.3912 22.0599C24.29 22.3084 24.2415 22.5753 24.2488 22.8435C24.256 23.1118 24.3188 23.3756 24.4333 23.6183C24.5478 23.8611 24.7113 24.0774 24.9137 24.2536Z" fill="#5186B7"/>
<path d="M86.1718 70.2057C86.5404 72.3566 86.2151 74.5691 85.2428 76.5228C84.2705 78.4766 82.7018 80.0703 80.7637 81.0734C78.8255 82.0764 76.6185 82.4367 74.462 82.1021C72.3054 81.7675 70.3113 80.7554 68.7682 79.2123C67.2251 77.6692 66.213 75.6751 65.8784 73.5185C65.5438 71.362 65.9041 69.155 66.9071 67.2168C67.9102 65.2787 69.5039 63.71 71.4576 62.7377C73.4114 61.7654 75.6239 61.4401 77.7748 61.8087C79.8704 62.1694 81.8028 63.1704 83.3065 64.674C84.8101 66.1776 85.8111 68.1101 86.1718 70.2057Z" fill="#5186B7"/>
<g style="mix-blend-mode:screen">
<path d="M76.0342 72.2333C76.0342 72.2333 108.135 6.48995 96.6631 3.0408C79.3725 -2.1514 60.76 -0.632485 44.54 7.29439L76.0342 72.2333Z" fill="#5186B7"/>
</g>
<g style="mix-blend-mode:overlay" opacity="0.5">
<path style="mix-blend-mode:overlay" opacity="0.5" d="M40.3867 36.9704C49.8946 27.2898 62.8455 21.7629 76.4133 21.5957C89.9811 21.4284 103.064 26.6345 112.808 36.0778L112.687 35.9345C107.903 31.0653 102.197 27.1978 95.9025 24.5578C89.6077 21.9177 82.8502 20.558 76.0243 20.558C69.1983 20.558 62.4408 21.9177 56.1461 24.5578C49.8514 27.1978 44.1456 31.0653 39.3618 35.9345C39.1733 36.1222 39.0249 36.3462 38.9257 36.5931C38.8265 36.8399 38.7785 37.1043 38.7847 37.3702C38.7909 37.6362 38.8511 37.8981 38.9617 38.14C39.0723 38.3819 39.2309 38.5989 39.428 38.7776L40.1222 39.4057C39.8853 39.0294 39.7826 38.5841 39.8306 38.142C39.8786 37.6999 40.0745 37.2871 40.3867 36.9704Z" fill="url(#paint15_linear_27_904)"/>
<path style="mix-blend-mode:overlay" opacity="0.5" d="M25.8515 22.4354C39.2133 8.88888 57.3992 1.18987 76.426 1.02464C95.4528 0.859401 113.77 8.2414 127.365 21.5538C127.327 21.4941 127.282 21.4386 127.232 21.3885C120.539 14.613 112.566 9.23358 103.778 5.56207C94.9894 1.89057 85.5596 1.52588e-05 76.0351 1.52588e-05C66.5105 1.52588e-05 57.0808 1.89057 48.2923 5.56207C39.5039 9.23358 31.5316 14.613 24.8377 21.3885C24.6434 21.5756 24.4902 21.8011 24.3879 22.0507C24.2857 22.3003 24.2366 22.5685 24.2439 22.8381C24.2511 23.1078 24.3145 23.3729 24.4301 23.6166C24.5456 23.8604 24.7107 24.0773 24.9148 24.2537L25.6532 24.9479C25.3815 24.5741 25.2522 24.1157 25.2886 23.655C25.325 23.1944 25.5246 22.7619 25.8515 22.4354Z" fill="url(#paint16_linear_27_904)"/>
<path style="mix-blend-mode:overlay" opacity="0.5" d="M54.8 51.6265C60.4591 45.7451 68.2181 42.3454 76.3782 42.172C84.5383 41.9985 92.4347 45.0652 98.3387 50.7009C95.459 47.6993 92.0022 45.311 88.1759 43.6794C84.3497 42.0479 80.233 41.2068 76.0735 41.2068C71.9139 41.2068 67.7973 42.0479 63.971 43.6794C60.1448 45.311 56.6879 47.6993 53.8082 50.7009C53.623 50.8955 53.4795 51.1259 53.3865 51.378C53.2936 51.63 53.2531 51.8984 53.2675 52.1667C53.2819 52.435 53.351 52.6975 53.4706 52.9381C53.5901 53.1787 53.7575 53.3924 53.9625 53.566L54.5465 54.0619C54.3083 53.6867 54.2037 53.2421 54.2497 52.8001C54.2957 52.3581 54.4896 51.9445 54.8 51.6265Z" fill="url(#paint17_linear_27_904)"/>
</g>
<path d="M81.1808 74.7017L70.4697 70.933L94.5918 2.45674L105.303 6.24751L81.1808 74.7017Z" fill="#5186B7"/>
</svg>
