<svg width="112" height="98" viewBox="0 0 112 98" fill="none" xmlns="http://www.w3.org/2000/svg">
<path d="M109.193 53.1942C106.076 50.8302 101.622 51.4186 99.2374 54.549C99.0116 54.8671 98.8269 55.199 98.6421 55.524L81.2116 52.5716C81.3758 51.3639 81.4853 50.146 81.4853 48.8939C81.4853 43.8272 80.0758 39.0993 77.6605 35.0282L88.7722 27.8404C89.4804 28.3194 90.346 28.5794 91.2628 28.4939C93.3771 28.2988 94.9302 26.4446 94.7455 24.3167C94.5539 22.2024 92.6826 20.6527 90.5683 20.8408C88.4541 21.029 86.9043 22.9038 87.0891 25.018C87.1062 25.2301 87.1609 25.4183 87.202 25.627L76.1621 32.7531C73.9589 29.7768 71.1878 27.2657 67.9754 25.3943L75.9055 12.8663C76.7505 13.0031 77.6468 12.8765 78.4439 12.4147C80.2777 11.3473 80.914 9.00726 79.8432 7.17355C78.7792 5.32957 76.4323 4.69325 74.5952 5.76063C72.7615 6.82459 72.1286 9.17147 73.1926 11.0154C73.2952 11.1968 73.4115 11.3541 73.5483 11.5149L65.5601 24.1285C62.8574 22.8935 59.9324 22.0622 56.8465 21.7714L58.4681 12.1923C59.0908 12.0418 59.6655 11.7305 60.076 11.1968C61.0134 9.95148 60.7842 8.18277 59.5424 7.24539C58.3005 6.29432 56.5284 6.53722 55.5841 7.77566C54.6468 9.0141 54.8828 10.7896 56.1178 11.7305C56.2376 11.8091 56.3778 11.8399 56.501 11.9186L54.8452 21.679C54.6365 21.6722 54.4381 21.6482 54.2328 21.6482C50.6954 21.6482 47.3256 22.3393 44.2364 23.5709L36.5902 9.52384C37.3326 8.58304 37.7876 7.40618 37.767 6.11301C37.7192 3.12638 35.2731 0.741877 32.2864 0.803456C29.3101 0.851352 26.9358 3.29744 26.9803 6.28064C27.0248 9.257 29.4743 11.6244 32.4575 11.5833C32.7551 11.5765 33.0391 11.5252 33.323 11.4807L40.7947 25.2062C37.0589 27.317 33.8704 30.2968 31.5064 33.8616L20.3434 25.1035C20.5658 24.2859 20.5247 23.3827 20.1552 22.5411C19.2828 20.6082 17.0147 19.7427 15.0783 20.6151C13.1351 21.484 12.273 23.759 13.142 25.6988C14.0212 27.6283 16.2928 28.4904 18.2291 27.6215C18.4173 27.5325 18.5884 27.4162 18.7594 27.3067L30.1038 36.2255C28.4274 39.4311 27.3669 43.0062 27.0795 46.8173L10.3332 46.7865C9.86455 45.6849 9.04691 44.7167 7.90768 44.1214C5.27001 42.7291 1.99944 43.7349 0.620734 46.3759C-0.764812 49.0136 0.247834 52.2773 2.87524 53.6595C5.51291 55.0553 8.78006 54.0358 10.169 51.3981C10.3093 51.1415 10.3982 50.8747 10.494 50.5976L27.0693 50.6386C27.2061 52.7973 27.5687 54.9047 28.1811 56.9095L17.4697 61.0354C16.8778 60.423 16.0773 59.9988 15.1604 59.8893C13.053 59.6498 11.1543 61.1619 10.9114 63.2625C10.6685 65.3699 12.1772 67.2926 14.2915 67.5252C16.3954 67.7613 18.2976 66.2457 18.537 64.1417C18.5576 63.933 18.5541 63.7415 18.5507 63.5191L29.1014 59.4548C31.1917 64.412 34.7154 68.6336 39.1492 71.5724L33.9765 76.9127C33.1794 76.6082 32.2762 76.5501 31.4038 76.8374C29.3785 77.5114 28.294 79.6804 28.9543 81.6851C29.6146 83.7036 31.7938 84.8086 33.8054 84.1552C35.8239 83.4778 36.9118 81.3054 36.2583 79.2835C36.1865 79.0851 36.1044 78.9072 36.012 78.7122L41.5508 72.999C44.1885 74.3913 47.0827 75.3492 50.1446 75.8008L48.6701 89.6255C47.8354 89.8171 47.0519 90.2824 46.484 90.9974C45.184 92.6771 45.4851 95.0787 47.1682 96.3924C48.8514 97.6959 51.2633 97.3811 52.5667 95.7048C53.8633 94.0216 53.552 91.6166 51.8722 90.3063C51.708 90.1934 51.5336 90.0942 51.3625 89.9881L52.8438 76.0711C53.3091 76.1019 53.7675 76.1429 54.2397 76.1429C57.7805 76.1429 61.1537 75.4485 64.2635 74.2203L67.014 86.4678C66.3264 86.9673 65.7824 87.6789 65.5395 88.5718C64.9922 90.6245 66.1998 92.7284 68.2559 93.2792C70.3051 93.8164 72.416 92.619 72.9633 90.5595C73.5107 88.5034 72.2928 86.4028 70.2401 85.852C70.0383 85.7973 69.8399 85.7768 69.6312 85.7528L66.7848 73.0742C68.7656 72.0445 70.5857 70.7787 72.2483 69.3007L76.0184 74.6103C75.6797 75.144 75.5052 75.7666 75.5907 76.4474C75.7994 77.9801 77.2226 79.068 78.7689 78.8696C80.3187 78.654 81.3964 77.2309 81.1911 75.6879C80.979 74.1382 79.5524 73.0605 78.006 73.2692C77.8624 73.2897 77.7495 73.365 77.6126 73.4061L73.7228 67.9255C76.5897 65.0038 78.7826 61.4391 80.0998 57.4501L98.0297 60.4982C98.3992 62.0412 99.2477 63.4712 100.599 64.4941C103.722 66.8649 108.18 66.2731 110.558 63.1428C112.925 60.0261 112.316 55.5719 109.193 53.1942ZM45.7656 47.6315C43.5248 47.6315 41.6945 45.8046 41.6945 43.5467C41.6945 41.299 43.5248 39.4824 45.7656 39.4824C48.0167 39.4824 49.8435 41.2956 49.8435 43.5467C49.8435 45.8012 48.0201 47.6315 45.7656 47.6315ZM56.2718 56.4853C54.6228 56.4853 53.2817 55.1442 53.2817 53.4987C53.2817 51.836 54.6228 50.5052 56.2718 50.5052C57.9242 50.5052 59.2652 51.8326 59.2652 53.4987C59.2618 55.1545 57.9242 56.4853 56.2718 56.4853ZM67.3767 43.817C64.9409 43.817 62.9669 41.843 62.9669 39.414C62.9669 36.9679 64.9409 34.9905 67.3767 34.9905C69.8125 34.9905 71.7899 36.9679 71.7899 39.414C71.7899 41.843 69.8159 43.817 67.3767 43.817Z" fill="white"/>
</svg>
